<svg xmlns="http://www.w3.org/2000/svg" xmlns:xlink="http://www.w3.org/1999/xlink" width="1024" zoomAndPan="magnify" viewBox="0 0 768 767.999994" height="1024" preserveAspectRatio="xMidYMid meet" version="1.0"><defs><clipPath id="6b797270d1"><path d="M 41.507812 39.246094 L 726.492188 39.246094 L 726.492188 729 L 41.507812 729 Z M 41.507812 39.246094 " clip-rule="nonzero"/></clipPath><clipPath id="7da3cb67b5"><path d="M 148.886719 39.246094 L 619.113281 39.246094 C 678.417969 39.246094 726.492188 87.324219 726.492188 146.628906 L 726.492188 621.371094 C 726.492188 680.675781 678.417969 728.753906 619.113281 728.753906 L 148.886719 728.753906 C 89.582031 728.753906 41.507812 680.675781 41.507812 621.371094 L 41.507812 146.628906 C 41.507812 87.324219 89.582031 39.246094 148.886719 39.246094 Z M 148.886719 39.246094 " clip-rule="nonzero"/></clipPath><clipPath id="71800dee22"><path d="M 250.308594 183 L 518 183 L 518 585 L 250.308594 585 Z M 250.308594 183 " clip-rule="nonzero"/></clipPath></defs><g clip-path="url(#6b797270d1)"><g clip-path="url(#7da3cb67b5)"><path fill="#002b7f" d="M 41.507812 39.246094 L 726.492188 39.246094 L 726.492188 729.585938 L 41.507812 729.585938 Z M 41.507812 39.246094 " fill-opacity="1" fill-rule="nonzero"/></g></g><g clip-path="url(#71800dee22)"><path fill="#ffffff" d="M 383.988281 183.210938 C 310.125 183.210938 250.222656 243.109375 250.222656 317.003906 C 250.222656 390.871094 383.988281 584.507812 383.988281 584.507812 C 383.988281 584.507812 517.757812 390.871094 517.757812 317.003906 C 517.757812 243.109375 457.855469 183.210938 383.988281 183.210938 Z M 383.988281 380.339844 C 345.105469 380.339844 313.585938 348.847656 313.585938 309.929688 C 313.585938 271.074219 345.105469 239.554688 383.988281 239.554688 C 422.875 239.554688 454.363281 271.074219 454.363281 309.929688 C 454.363281 348.847656 422.875 380.339844 383.988281 380.339844 Z M 383.988281 380.339844 " fill-opacity="1" fill-rule="nonzero"/></g></svg>